<svg xmlns="http://www.w3.org/2000/svg" xmlns:ffdec="https://www.free-decompiler.com/flash" xmlns:xlink="http://www.w3.org/1999/xlink" ffdec:objectType="frame" height="18.641584396362305" width="18.350000381469727" viewBox="-8 -5.091584205627441 18.350000381469727 18.641584396362305">
  <g>
    <use ffdec:characterId="267" height="17.65" transform="matrix(1.0, 0.0, 0.0, 1.0, 0.0, 0.0)" width="17.35" xlink:href="#shape0"/>
  </g>
  <defs>
    <g id="shape0">
      <path d="M3.1 -0.45 L3.45 0.25 4.55 1.65 4.35 2.15 4.7 2.35 4.9 1.7 6.85 3.4 9.05 5.45 9.85 6.7 9.7 7.55 9.1 10.15 8.95 10.45 9.1 10.2 8.85 11.05 8.35 11.8 Q7.4 13.05 5.8 13.05 3.45 13.05 2.0 10.95 L1.5 9.85 0.8 9.35 0.45 9.15 0.8 8.8 0.9 8.7 -0.05 8.0 -0.3 7.6 -1.25 8.1 -1.7 7.9 -1.9 7.5 -1.9 7.4 -1.95 7.45 Q-4.2 5.5 -5.0 5.05 -6.75 4.15 -7.35 2.5 L-7.5 -0.25 Q-7.5 -2.35 -4.75 -3.95 -1.7 -5.75 1.95 -2.5 L3.1 -0.45 M0.95 4.25 L2.8 1.8 2.55 1.45 2.5 1.55 2.1 0.8 0.9 -1.25 0.3 -1.85 0.3 -1.9 0.2 -1.95 0.15 -2.0 -0.05 -2.2 -0.95 -2.9 -1.05 -2.9 -1.3 -3.0 -1.75 -3.15 Q-4.2 -3.4 -5.35 -1.7 L-5.55 -1.4 -5.9 -0.65 -6.2 0.55 -6.2 0.6 -6.2 0.75 -5.9 1.8 -5.5 2.65 -5.4 2.75 -4.75 3.35 -2.55 4.8 -1.15 6.2 -0.95 6.0 0.6 4.65 0.95 4.25 M0.9 7.0 L1.6 7.6 1.95 7.05 3.1 5.55 3.85 3.9 4.0 3.7 3.95 3.7 3.5 3.4 3.05 3.95 2.15 5.05 0.65 6.75 0.6 6.85 0.65 6.85 0.9 7.0 M4.75 6.85 L8.35 9.0 8.45 8.65 8.45 8.15 Q8.45 7.0 5.45 4.45 L4.2 6.7 4.75 6.85 M3.35 8.05 L2.5 9.0 2.4 9.0 2.75 9.15 Q2.8 9.85 3.25 10.3 L3.35 10.55 3.5 10.9 4.15 11.3 4.55 11.5 4.8 11.55 5.35 11.6 6.3 11.45 6.7 11.3 6.9 11.1 6.95 11.15 6.95 11.25 7.75 10.55 7.95 10.25 7.65 9.85 6.5 8.85 4.35 8.05 3.9 7.95 3.5 8.0 3.35 8.05" fill="#000000" fill-rule="evenodd" stroke="none"/>
      <path d="M3.35 8.05 L3.5 8.0 3.9 7.95 4.35 8.05 6.5 8.85 7.65 9.85 7.95 10.25 7.75 10.55 6.95 11.25 6.95 11.15 6.9 11.1 6.7 11.3 6.3 11.45 5.35 11.6 4.8 11.55 4.55 11.5 4.15 11.3 3.5 10.9 3.35 10.55 3.25 10.3 Q2.8 9.85 2.75 9.15 L2.4 9.0 2.5 9.0 3.35 8.05 M3.45 8.9 L3.15 9.05 2.95 9.4 3.15 9.95 3.95 10.4 Q4.3 10.4 4.45 10.2 L4.6 9.65 4.3 9.2 Q3.85 8.9 3.45 8.9" fill="#706838" fill-rule="evenodd" stroke="none"/>
      <path d="M-5.55 -1.4 L-5.35 -1.7 Q-4.2 -3.4 -1.75 -3.15 L-1.3 -3.0 -1.05 -2.9 -0.95 -2.9 -0.05 -2.2 0.15 -2.0 0.2 -1.95 0.3 -1.9 0.3 -1.85 0.9 -1.25 2.1 0.8 2.5 1.55 2.55 1.45 2.8 1.8 0.95 4.25 0.3 4.1 -1.7 3.15 -1.35 3.3 Q-2.05 2.8 -3.4 2.25 L-3.5 2.35 -3.35 2.2 -4.1 1.6 -5.25 0.2 -5.55 -1.4 M3.45 8.9 Q3.85 8.9 4.3 9.2 L4.6 9.65 4.45 10.2 Q4.3 10.4 3.95 10.4 L3.15 9.95 2.95 9.4 3.15 9.05 3.45 8.9" fill="#b8b070" fill-rule="evenodd" stroke="none"/>
      <path d="M4.75 6.85 L4.2 6.7 5.45 4.45 Q8.45 7.0 8.45 8.15 L8.45 8.65 8.35 9.0 4.75 6.85" fill="#383010" fill-rule="evenodd" stroke="none"/>
      <path d="M0.65 6.75 L2.15 5.05 3.05 3.95 3.5 3.4 3.95 3.7 4.0 3.7 3.85 3.9 3.1 5.55 1.95 7.05 1.6 7.6 0.9 7.0 0.65 6.75" fill="#8e7255" fill-rule="evenodd" stroke="none"/>
      <path d="M0.95 4.25 L0.6 4.65 -0.95 6.0 -1.15 6.2 -2.55 4.8 -4.75 3.35 -5.4 2.75 -5.5 2.65 -5.9 1.8 -6.2 0.75 -6.2 0.6 -6.2 0.55 -5.9 -0.65 -5.55 -1.4 -5.25 0.2 -4.1 1.6 -3.35 2.2 -3.5 2.35 -3.4 2.25 Q-2.05 2.8 -1.35 3.3 L-1.7 3.15 0.3 4.1 0.95 4.25" fill="#706837" fill-rule="evenodd" stroke="none"/>
    </g>
  </defs>
</svg>