<svg xmlns="http://www.w3.org/2000/svg" xmlns:ffdec="https://www.free-decompiler.com/flash" xmlns:xlink="http://www.w3.org/1999/xlink" ffdec:objectType="frame" height="18.532142639160156" width="22.700002670288086" viewBox="-11.399999618530273 -9.132143020629883 22.700002670288086 18.532142639160156">
  <g>
    <use ffdec:characterId="303" height="17.55" transform="matrix(1.0, 0.0, 0.0, 1.0, 0.0, 0.0)" width="21.75" xlink:href="#shape0"/>
  </g>
  <defs>
    <g id="shape0">
      <path d="M6.45 -6.5 L6.45 -6.55 6.65 -7.05 5.6 -7.05 5.55 -7.0 3.85 -7.0 3.7 -6.95 3.4 -6.95 3.45 -6.9 3.85 -6.4 4.55 -5.5 5.85 -5.5 6.0 -5.55 6.1 -5.55 6.45 -6.5 M9.8 -6.4 L9.7 -6.8 9.7 -6.95 8.35 -6.95 8.3 -7.0 8.0 -7.05 7.25 -7.05 7.05 -6.4 6.9 -6.05 6.85 -5.55 9.8 -5.55 9.85 -5.95 9.8 -6.4 M9.8 -8.0 L10.15 -7.9 10.5 -7.8 10.7 -6.45 10.7 -5.95 10.8 -4.8 10.65 -3.7 10.4 -2.25 10.3 -1.4 10.0 -0.8 10.0 -0.75 5.4 -0.75 2.6 -0.75 2.6 -0.45 2.4 1.35 2.3 1.65 2.1 1.85 -1.6 2.0 -2.2 6.2 -2.1 7.0 -1.8 7.7 Q-1.65 8.0 -1.65 8.4 -1.65 8.85 -2.45 8.85 L-3.25 8.85 -3.8 8.9 -8.15 8.75 -8.2 8.65 Q-8.6 8.6 -8.6 7.65 L-8.4 5.15 -8.35 4.0 -8.15 3.3 -8.05 2.3 -7.85 1.25 -7.85 1.2 -7.85 1.05 -7.65 -0.15 Q-7.65 -1.85 -9.9 -1.85 L-10.4 -1.8 -10.55 -1.95 -10.8 -2.25 -10.85 -2.4 -10.9 -3.95 Q-10.9 -5.35 -10.55 -6.2 -10.25 -6.75 -10.2 -7.25 L-9.7 -7.7 -9.45 -8.1 -9.05 -8.6 Q-8.5 -8.75 -8.2 -8.2 L-7.95 -7.55 -1.9 -7.55 -1.85 -7.5 -1.35 -7.5 -1.1 -7.25 0.35 -7.45 2.2 -7.45 2.55 -7.45 2.75 -7.55 3.15 -7.85 4.6 -7.85 4.75 -7.9 8.2 -7.9 8.35 -8.15 Q8.6 -8.55 8.9 -8.55 9.4 -8.55 9.45 -7.95 L9.8 -8.0 M0.35 -6.65 L-0.25 -6.55 -1.0 -6.55 -0.95 -5.55 -0.55 -5.55 0.2 -5.65 2.3 -5.65 2.3 -5.85 2.35 -6.65 0.35 -6.65 M3.7 -5.55 L3.3 -6.15 3.25 -6.25 3.25 -5.55 3.7 -5.55 M3.7 -4.75 L-1.4 -4.75 -1.45 -4.7 -2.9 -4.7 -3.45 -4.6 -3.45 -4.35 -3.45 -4.1 -1.9 -4.1 -0.95 -4.2 1.2 -4.2 1.35 -4.25 9.95 -4.25 10.0 -4.75 6.05 -4.75 5.9 -4.7 3.75 -4.7 3.7 -4.75 M1.25 -3.4 L-0.9 -3.4 -1.85 -3.3 -7.6 -3.3 -9.15 -3.15 -9.95 -3.2 -9.95 -2.95 -9.9 -2.95 Q-9.85 -2.65 -9.4 -2.65 L-9.15 -2.7 -9.1 -2.7 Q-8.05 -2.65 -7.25 -2.15 L-7.05 -2.15 -6.6 -2.15 0.4 -2.05 5.4 -1.95 5.4 -0.75 5.4 -1.95 5.75 -1.95 6.1 -2.95 6.25 -3.3 6.3 -3.4 5.45 -3.4 5.3 -3.45 1.4 -3.45 1.25 -3.4 M1.55 -0.8 L1.25 -0.75 -1.4 -0.75 -1.5 1.0 -1.05 0.95 -0.9 0.95 -0.1 0.95 -0.05 1.0 1.5 0.95 1.55 -0.75 1.55 -0.8 M6.75 -1.95 L9.5 -1.9 9.7 -2.95 9.75 -3.4 7.2 -3.4 7.1 -2.95 7.05 -2.7 6.75 -1.95 M-3.0 -6.2 L-2.85 -6.4 -2.55 -6.75 -6.9 -6.75 -7.05 -6.7 -8.55 -6.7 -9.45 -6.6 -9.5 -6.4 -9.65 -6.0 -9.9 -5.4 -3.45 -5.45 -3.0 -6.2 M-6.7 -4.6 L-6.95 -4.6 -6.9 -4.1 -6.7 -4.1 -6.7 -4.35 -6.7 -4.6 M-7.5 -4.3 L-7.45 -4.6 -7.85 -4.6 -7.85 -4.55 -7.85 -4.05 -7.65 -4.1 -7.5 -4.1 -7.5 -4.3 M-6.1 -4.35 L-6.1 -4.1 -5.85 -4.1 -5.9 -4.5 -5.9 -4.6 -6.1 -4.6 -6.1 -4.35 M-5.25 -4.35 L-5.25 -4.1 -4.9 -4.1 -4.9 -4.4 -4.9 -4.6 -5.25 -4.6 -5.25 -4.35 M-9.75 -4.0 L-8.55 -4.0 -8.55 -4.45 -8.55 -4.6 -10.0 -4.6 -10.0 -3.95 -9.75 -4.0 M-2.0 -5.9 L-2.05 -6.45 -2.65 -5.5 -1.95 -5.5 -2.0 -5.9 M-4.1 -4.35 L-4.1 -4.6 -4.3 -4.6 -4.3 -4.4 -4.3 -4.1 -4.1 -4.1 -4.1 -4.35 M-2.35 -0.75 L-6.15 -0.75 -6.75 2.7 -7.4 6.9 -7.4 7.7 Q-4.15 7.65 -3.3 7.75 L-3.35 6.8 Q-3.35 4.5 -2.55 -0.1 L-2.35 -0.75" fill="#000000" fill-rule="evenodd" stroke="none"/>
      <path d="M3.85 -6.4 L5.35 -6.4 6.45 -6.5 6.1 -5.55 6.0 -5.55 5.85 -5.5 4.55 -5.5 3.85 -6.4 M7.05 -6.4 L7.75 -6.35 9.8 -6.4 9.85 -5.95 9.8 -5.55 6.85 -5.55 6.9 -6.05 7.05 -6.4 M3.7 -5.55 L3.25 -5.55 3.25 -6.25 3.3 -6.15 3.7 -5.55 M1.25 -3.4 L1.4 -3.45 5.3 -3.45 5.45 -3.4 6.3 -3.4 6.25 -3.3 6.1 -2.95 5.75 -1.95 5.4 -1.95 5.4 -0.75 5.4 -1.95 0.4 -2.05 -6.6 -2.15 -7.05 -2.15 -7.25 -2.15 Q-8.05 -2.65 -9.1 -2.7 L-9.15 -2.7 -9.4 -2.65 Q-9.85 -2.65 -9.9 -2.95 L-9.95 -2.95 -9.95 -3.2 -9.15 -3.15 -7.6 -3.3 -1.85 -3.3 -0.9 -3.4 1.25 -3.4 M6.75 -1.95 L7.05 -2.7 7.1 -2.95 7.2 -3.4 9.75 -3.4 9.7 -2.95 9.5 -1.9 6.75 -1.95 M-9.5 -6.4 L-9.6 -6.1 -7.9 -6.1 -7.5 -6.2 -3.0 -6.2 -3.45 -5.45 -9.9 -5.4 -9.65 -6.0 -9.5 -6.4 M-2.0 -5.9 L-1.95 -5.5 -2.65 -5.5 -2.05 -6.45 -2.0 -5.9 M-2.35 -0.75 L-2.55 -0.1 Q-3.35 4.5 -3.35 6.8 L-3.3 7.75 Q-4.15 7.65 -7.4 7.7 L-7.4 6.9 -6.75 2.7 -6.15 -0.75 -2.35 -0.75" fill="#333333" fill-rule="evenodd" stroke="none"/>
      <path d="M6.45 -6.5 L5.35 -6.4 3.85 -6.4 3.45 -6.9 3.4 -6.95 3.7 -6.95 3.85 -7.0 5.55 -7.0 5.6 -7.05 6.65 -7.05 6.45 -6.55 6.45 -6.5 M7.05 -6.4 L7.25 -7.05 8.0 -7.05 8.3 -7.0 8.35 -6.95 9.7 -6.95 9.7 -6.8 9.8 -6.4 7.75 -6.35 7.05 -6.4 M3.7 -4.75 L3.75 -4.7 5.9 -4.7 6.05 -4.75 10.0 -4.75 9.95 -4.25 1.35 -4.25 1.2 -4.2 -0.95 -4.2 -1.9 -4.1 -3.45 -4.1 -3.45 -4.35 -3.45 -4.6 -2.9 -4.7 -1.45 -4.7 -1.4 -4.75 3.7 -4.75 M-9.5 -6.4 L-9.45 -6.6 -8.55 -6.7 -7.05 -6.7 -6.9 -6.75 -2.55 -6.75 -2.85 -6.4 -3.0 -6.2 -7.5 -6.2 -7.9 -6.1 -9.6 -6.1 -9.5 -6.4 M-9.75 -4.0 L-10.0 -3.95 -10.0 -4.6 -8.55 -4.6 -8.55 -4.45 -8.55 -4.0 -9.75 -4.0 M-5.25 -4.35 L-5.25 -4.6 -4.9 -4.6 -4.9 -4.4 -4.9 -4.1 -5.25 -4.1 -5.25 -4.35 M-6.1 -4.35 L-6.1 -4.6 -5.9 -4.6 -5.9 -4.5 -5.85 -4.1 -6.1 -4.1 -6.1 -4.35 M-7.5 -4.3 L-7.5 -4.1 -7.65 -4.1 -7.85 -4.05 -7.85 -4.55 -7.85 -4.6 -7.45 -4.6 -7.5 -4.3 M-6.7 -4.6 L-6.7 -4.35 -6.7 -4.1 -6.9 -4.1 -6.95 -4.6 -6.7 -4.6 M-4.1 -4.35 L-4.1 -4.1 -4.3 -4.1 -4.3 -4.4 -4.3 -4.6 -4.1 -4.6 -4.1 -4.35" fill="#666666" fill-rule="evenodd" stroke="none"/>
      <path d="M0.35 -6.65 L2.35 -6.65 2.3 -5.85 2.3 -5.65 0.2 -5.65 -0.55 -5.55 -0.95 -5.55 -1.0 -6.55 -0.25 -6.55 0.35 -6.65" fill="#999999" fill-rule="evenodd" stroke="none"/>
    </g>
  </defs>
</svg>