<svg xmlns="http://www.w3.org/2000/svg" xmlns:ffdec="https://www.free-decompiler.com/flash" xmlns:xlink="http://www.w3.org/1999/xlink" ffdec:objectType="frame" height="18.761289596557617" width="28.05000114440918" viewBox="-11.699999809265137 -9.361289978027344 28.05000114440918 18.761289596557617">
  <g>
    <use ffdec:characterId="299" height="17.75" transform="matrix(1.0, 0.0, 0.0, 1.0, 0.0, 0.0)" width="27.05" xlink:href="#shape0"/>
  </g>
  <defs>
    <g id="shape0">
      <path d="M13.0 -6.1 L13.0 -6.75 12.55 -6.75 12.15 -6.75 8.55 -6.8 8.5 -6.85 4.2 -6.85 Q3.85 -7.05 3.6 -6.85 L3.5 -6.8 3.55 -6.1 3.55 -5.65 3.5 -5.4 5.85 -5.4 11.7 -5.4 11.8 -5.45 13.0 -5.45 13.0 -6.1 M9.4 -7.8 L10.9 -7.8 11.0 -7.85 11.85 -8.4 Q12.35 -8.75 12.7 -8.25 L12.95 -7.8 13.0 -7.8 Q13.65 -7.8 14.05 -7.2 L15.35 -7.2 15.85 -6.3 15.85 -4.85 15.75 -4.55 Q15.4 -4.0 14.2 -3.9 L14.15 -3.9 14.1 -3.7 14.25 -1.85 14.1 -1.2 13.55 -0.8 13.5 -0.8 13.1 -0.75 12.95 -0.75 12.9 -0.75 5.4 -0.75 2.6 -0.75 2.6 -0.45 2.4 1.35 2.3 1.65 2.1 1.85 -1.6 2.0 -2.2 6.2 -2.1 7.0 -1.8 7.7 Q-1.65 8.0 -1.65 8.4 -1.65 8.85 -2.45 8.85 L-3.25 8.85 -3.8 8.9 -8.15 8.75 -8.2 8.65 Q-8.6 8.6 -8.6 7.65 L-8.4 5.15 -8.35 4.0 -8.15 3.3 -8.05 2.3 -7.85 1.25 -7.85 1.2 -7.85 1.05 -7.65 -0.15 Q-7.65 -1.85 -9.9 -1.85 L-10.4 -1.8 -10.55 -1.95 -10.85 -2.4 -10.45 -4.9 -10.35 -4.85 -10.9 -5.25 -11.2 -5.7 Q-11.2 -6.25 -10.4 -6.05 L-10.25 -6.0 -10.15 -7.0 -9.9 -7.25 Q-9.7 -7.6 -9.1 -7.6 L-9.05 -7.6 -9.05 -7.65 -8.7 -8.7 Q-8.2 -9.2 -7.5 -8.15 -5.15 -8.25 -5.15 -7.7 L-5.15 -7.55 -2.9 -7.55 -1.8 -7.5 -1.55 -7.45 -1.1 -7.25 2.65 -7.25 2.65 -7.3 3.25 -7.8 4.3 -7.95 4.65 -7.9 6.15 -7.9 6.3 -7.85 9.25 -7.85 9.4 -7.8 M2.6 -6.55 L-0.5 -6.55 -0.75 -6.5 -1.0 -6.5 -1.0 -5.85 Q-0.95 -5.45 -0.55 -5.3 L0.15 -5.35 1.45 -5.35 1.95 -5.4 2.65 -5.4 2.6 -5.6 2.6 -6.35 2.6 -6.55 M11.35 -4.35 L6.65 -4.35 6.6 -4.4 4.5 -4.5 4.05 -4.4 1.45 -4.4 0.8 -4.5 -0.55 -4.5 -0.6 -4.45 -1.1 -4.45 Q-1.6 -4.7 -1.95 -5.15 L-1.95 -6.6 -2.2 -6.6 -3.25 -6.6 -3.35 -6.65 -3.85 -6.65 -4.0 -5.1 -4.25 -4.05 6.15 -4.0 6.3 -3.95 10.75 -3.95 11.45 -3.85 13.2 -3.85 13.2 -4.3 12.65 -4.3 12.2 -4.35 11.9 -4.3 11.7 -4.35 11.35 -4.35 M1.55 -3.35 L-8.5 -3.35 -9.4 -3.35 -9.5 -3.0 -9.5 -2.7 -9.1 -2.7 Q-8.05 -2.65 -7.25 -2.15 L-7.05 -2.15 -6.6 -2.15 0.4 -2.05 5.4 -1.95 5.4 -0.75 5.4 -1.95 5.8 -1.95 6.15 -3.0 6.15 -3.05 6.2 -3.25 6.15 -3.25 6.1 -3.3 1.6 -3.3 1.55 -3.35 M1.55 -0.8 L1.25 -0.75 -1.4 -0.75 -1.5 1.0 -1.05 0.95 -0.9 0.95 -0.1 0.95 -0.05 1.0 1.5 0.95 1.55 -0.75 1.55 -0.8 M7.1 -3.1 L7.1 -3.0 6.75 -2.05 6.7 -1.95 11.6 -1.9 11.6 -1.95 13.15 -1.95 13.15 -2.0 13.2 -3.0 13.2 -3.15 11.4 -3.15 11.35 -3.2 10.7 -3.25 7.1 -3.25 7.1 -3.1 M14.3 -6.0 L13.85 -6.05 13.85 -5.0 14.9 -5.15 14.95 -6.05 14.3 -6.0 M-8.9 -6.65 L-9.25 -4.05 -8.2 -4.1 -8.3 -4.4 -8.1 -6.1 -7.9 -6.65 -8.9 -6.65 M-7.1 -6.55 L-7.25 -5.1 -7.35 -4.05 -6.85 -4.05 -6.85 -4.15 -6.6 -5.75 -6.45 -6.45 -6.4 -6.65 -7.1 -6.65 -7.1 -6.55 M-5.85 -4.05 L-5.05 -4.05 -5.05 -4.2 -4.9 -6.1 -4.9 -6.65 -5.65 -6.65 -5.8 -5.05 -5.85 -4.05 M-2.35 -0.75 L-6.15 -0.75 -6.75 2.7 -7.4 6.9 -7.4 7.7 Q-4.15 7.65 -3.3 7.75 L-3.35 6.8 Q-3.35 4.5 -2.55 -0.1 L-2.35 -0.75" fill="#000000" fill-rule="evenodd" stroke="none"/>
      <path d="M-2.35 -0.75 L-2.55 -0.1 Q-3.35 4.5 -3.35 6.8 L-3.3 7.75 Q-4.15 7.65 -7.4 7.7 L-7.4 6.9 -6.75 2.7 -6.15 -0.75 -2.35 -0.75" fill="#333333" fill-rule="evenodd" stroke="none"/>
      <path d="M1.55 -3.35 L1.6 -3.3 6.1 -3.3 6.15 -3.25 6.2 -3.25 6.15 -3.05 6.15 -3.0 5.8 -1.95 5.4 -1.95 5.4 -0.75 5.4 -1.95 0.4 -2.05 -6.6 -2.15 -7.05 -2.15 -7.25 -2.15 Q-8.05 -2.65 -9.1 -2.7 L-9.5 -2.7 -9.5 -3.0 -9.4 -3.35 -8.5 -3.35 1.55 -3.35 M7.1 -3.1 L7.1 -3.25 10.7 -3.25 11.35 -3.2 11.4 -3.15 13.2 -3.15 13.2 -3.0 13.15 -2.0 13.15 -1.95 11.6 -1.95 11.6 -1.9 6.7 -1.95 6.75 -2.05 7.1 -3.0 7.1 -3.1" fill="#666666" fill-rule="evenodd" stroke="none"/>
      <path d="M13.0 -6.1 L12.1 -6.3 10.85 -6.35 8.7 -6.35 8.55 -6.4 4.0 -6.4 3.55 -6.1 3.5 -6.8 3.6 -6.85 Q3.85 -7.05 4.2 -6.85 L8.5 -6.85 8.55 -6.8 12.15 -6.75 12.55 -6.75 13.0 -6.75 13.0 -6.1 M3.55 -5.65 L3.55 -5.55 3.8 -5.45 5.8 -5.45 5.85 -5.4 3.5 -5.4 3.55 -5.65 M11.45 -3.85 L10.75 -3.95 6.3 -3.95 6.15 -4.0 -4.25 -4.05 -4.0 -5.1 -3.85 -6.65 -3.35 -6.65 -3.25 -6.6 -2.2 -6.6 -1.95 -6.6 -1.95 -5.15 Q-1.6 -4.7 -1.1 -4.45 L-0.6 -4.45 -0.55 -4.5 0.8 -4.5 1.45 -4.4 4.05 -4.4 4.5 -4.5 6.6 -4.4 6.65 -4.35 11.35 -4.35 11.25 -4.15 11.45 -3.85 M-5.85 -4.05 L-5.8 -5.05 -5.65 -6.65 -4.9 -6.65 -4.9 -6.1 -5.05 -4.2 -5.05 -4.05 -5.85 -4.05 M-7.1 -6.55 L-7.1 -6.65 -6.4 -6.65 -6.45 -6.45 -6.6 -5.75 -6.85 -4.15 -6.85 -4.05 -7.35 -4.05 -7.25 -5.1 -7.1 -6.55 M-8.9 -6.65 L-7.9 -6.65 -8.1 -6.1 -8.3 -4.4 -8.2 -4.1 -9.25 -4.05 -8.9 -6.65 M14.3 -6.0 L14.95 -6.05 14.9 -5.15 13.85 -5.0 13.85 -6.05 14.3 -6.0" fill="#999999" fill-rule="evenodd" stroke="none"/>
      <path d="M3.55 -6.1 L4.0 -6.4 8.55 -6.4 8.7 -6.35 10.85 -6.35 12.1 -6.3 13.0 -6.1 13.0 -5.45 11.8 -5.45 11.7 -5.4 5.85 -5.4 5.8 -5.45 3.8 -5.45 3.55 -5.55 3.55 -5.65 3.55 -6.1 M2.6 -6.55 L2.6 -6.35 2.6 -5.6 2.65 -5.4 1.95 -5.4 1.45 -5.35 0.15 -5.35 -0.55 -5.3 Q-0.95 -5.45 -1.0 -5.85 L-1.0 -6.5 -0.75 -6.5 -0.5 -6.55 2.6 -6.55 M11.45 -3.85 L11.25 -4.15 11.35 -4.35 11.7 -4.35 11.9 -4.3 12.2 -4.35 12.65 -4.3 13.2 -4.3 13.2 -3.85 11.45 -3.85" fill="#cccccc" fill-rule="evenodd" stroke="none"/>
    </g>
  </defs>
</svg>